<svg width="116" height="21" viewBox="0 0 116 21" fill="none" xmlns="http://www.w3.org/2000/svg">
<path d="M12.7715 14.0234C12.1914 14.7181 11.3714 15.2588 10.3115 15.6455C9.25163 16.0251 8.07715 16.2148 6.78809 16.2148C5.43457 16.2148 4.24577 15.9212 3.22168 15.334C2.20475 14.7396 1.41699 13.8802 0.858398 12.7559C0.306966 11.6315 0.0240885 10.3102 0.00976562 8.79199V7.72852C0.00976562 6.16732 0.271159 4.81738 0.793945 3.67871C1.32389 2.53288 2.08301 1.65918 3.07129 1.05762C4.06673 0.448893 5.23047 0.144531 6.5625 0.144531C8.41732 0.144531 9.86751 0.588542 10.9131 1.47656C11.9587 2.35742 12.5781 3.6429 12.7715 5.33301H9.63477C9.49154 4.43783 9.17285 3.78255 8.67871 3.36719C8.19173 2.95182 7.51855 2.74414 6.65918 2.74414C5.56348 2.74414 4.72917 3.15592 4.15625 3.97949C3.58333 4.80306 3.29329 6.02767 3.28613 7.65332V8.65234C3.28613 10.2923 3.59766 11.5312 4.2207 12.3691C4.84375 13.207 5.75684 13.626 6.95996 13.626C8.17025 13.626 9.0332 13.3682 9.54883 12.8525V10.1562H6.61621V7.78223H12.7715V14.0234ZM25.2969 11.7783L26.8223 4.37695H29.8193L26.8545 16H24.2549L22.0527 8.68457L19.8506 16H17.2617L14.2969 4.37695H17.2939L18.8086 11.7676L20.9355 4.37695H23.1807L25.2969 11.7783ZM36.7158 16.2148C35.0114 16.2148 33.6221 15.6921 32.5479 14.6465C31.4808 13.6009 30.9473 12.208 30.9473 10.4678V10.167C30.9473 8.99967 31.1729 7.95768 31.624 7.04102C32.0752 6.11719 32.7126 5.4082 33.5361 4.91406C34.3669 4.41276 35.3122 4.16211 36.3721 4.16211C37.9619 4.16211 39.2116 4.66341 40.1211 5.66602C41.0378 6.66862 41.4961 8.09017 41.4961 9.93066V11.1982H34.0947C34.195 11.9574 34.4958 12.5661 34.9971 13.0244C35.5055 13.4827 36.1465 13.7119 36.9199 13.7119C38.1159 13.7119 39.0505 13.2786 39.7236 12.4121L41.249 14.1201C40.7835 14.779 40.1533 15.2946 39.3584 15.667C38.5635 16.0322 37.6826 16.2148 36.7158 16.2148ZM36.3613 6.67578C35.7454 6.67578 35.2441 6.88346 34.8574 7.29883C34.4779 7.71419 34.2344 8.30859 34.127 9.08203H38.4453V8.83496C38.431 8.14746 38.2448 7.61751 37.8867 7.24512C37.5286 6.86556 37.0202 6.67578 36.3613 6.67578ZM46.126 4.37695L46.2227 5.71973C47.0534 4.68132 48.167 4.16211 49.5635 4.16211C50.7952 4.16211 51.7119 4.52376 52.3135 5.24707C52.915 5.97038 53.223 7.05176 53.2373 8.49121V16H50.1328V8.56641C50.1328 7.90755 49.9896 7.43132 49.7031 7.1377C49.4167 6.83691 48.9404 6.68652 48.2744 6.68652C47.4007 6.68652 46.7454 7.05892 46.3086 7.80371V16H43.2041V4.37695H46.126Z" fill="#FFE600"/>
<path d="M69.3936 11.8965C69.3936 11.2878 69.1787 10.8223 68.749 10.5C68.3193 10.1706 67.5459 9.82682 66.4287 9.46875C65.3115 9.10352 64.4271 8.74544 63.7754 8.39453C61.9993 7.4349 61.1113 6.14225 61.1113 4.5166C61.1113 3.67155 61.3477 2.9196 61.8203 2.26074C62.3001 1.59473 62.984 1.07552 63.8721 0.703125C64.7673 0.330729 65.7699 0.144531 66.8799 0.144531C67.9971 0.144531 68.9925 0.348633 69.8662 0.756836C70.7399 1.15788 71.4167 1.72721 71.8965 2.46484C72.3835 3.20247 72.627 4.04036 72.627 4.97852H69.4043C69.4043 4.26237 69.1787 3.70736 68.7275 3.31348C68.2764 2.91243 67.6426 2.71191 66.8262 2.71191C66.0384 2.71191 65.4261 2.88021 64.9893 3.2168C64.5524 3.54622 64.334 3.98307 64.334 4.52734C64.334 5.03581 64.5882 5.46191 65.0967 5.80566C65.6123 6.14941 66.3678 6.47168 67.3633 6.77246C69.1966 7.32389 70.5322 8.00781 71.3701 8.82422C72.208 9.64062 72.627 10.6576 72.627 11.875C72.627 13.2285 72.1149 14.292 71.0908 15.0654C70.0667 15.8317 68.6882 16.2148 66.9551 16.2148C65.752 16.2148 64.6562 15.9964 63.668 15.5596C62.6797 15.1156 61.9242 14.5104 61.4014 13.7441C60.8857 12.9779 60.6279 12.0898 60.6279 11.0801H63.8613C63.8613 12.806 64.8926 13.6689 66.9551 13.6689C67.7214 13.6689 68.3193 13.515 68.749 13.207C69.1787 12.8919 69.3936 12.4551 69.3936 11.8965ZM78.3311 1.51953V4.37695H80.3184V6.6543H78.3311V12.4551C78.3311 12.8848 78.4134 13.1927 78.5781 13.3789C78.7428 13.5651 79.0579 13.6582 79.5234 13.6582C79.8672 13.6582 80.1715 13.6331 80.4365 13.583V15.9355C79.8278 16.1217 79.2012 16.2148 78.5566 16.2148C76.3796 16.2148 75.2695 15.1156 75.2266 12.917V6.6543H73.5293V4.37695H75.2266V1.51953H78.3311ZM88.7832 16C88.64 15.7207 88.5361 15.3734 88.4717 14.958C87.7197 15.7959 86.7422 16.2148 85.5391 16.2148C84.4004 16.2148 83.4551 15.8854 82.7031 15.2266C81.9583 14.5677 81.5859 13.737 81.5859 12.7344C81.5859 11.5026 82.0407 10.5573 82.9502 9.89844C83.8669 9.23958 85.1882 8.90658 86.9141 8.89941H88.3428V8.2334C88.3428 7.69629 88.2031 7.2666 87.9238 6.94434C87.6517 6.62207 87.2184 6.46094 86.624 6.46094C86.1012 6.46094 85.6895 6.58626 85.3887 6.83691C85.0951 7.08757 84.9482 7.43132 84.9482 7.86816H81.8438C81.8438 7.19499 82.0514 6.57194 82.4668 5.99902C82.8822 5.42611 83.4694 4.97852 84.2285 4.65625C84.9876 4.32682 85.8398 4.16211 86.7852 4.16211C88.2174 4.16211 89.3525 4.52376 90.1904 5.24707C91.0355 5.96322 91.458 6.97298 91.458 8.27637V13.3145C91.4652 14.4173 91.6191 15.2516 91.9199 15.8174V16H88.7832ZM86.2158 13.8408C86.6742 13.8408 87.0967 13.7406 87.4834 13.54C87.8701 13.3324 88.1566 13.0566 88.3428 12.7129V10.7148H87.1826C85.6286 10.7148 84.8014 11.252 84.7012 12.3262L84.6904 12.5088C84.6904 12.8955 84.8265 13.2142 85.0986 13.4648C85.3708 13.7155 85.7432 13.8408 86.2158 13.8408ZM98.6768 13.7119C99.2497 13.7119 99.7152 13.5544 100.073 13.2393C100.431 12.9242 100.618 12.5052 100.632 11.9824H103.543C103.536 12.7702 103.321 13.4935 102.898 14.1523C102.476 14.804 101.896 15.3125 101.158 15.6777C100.428 16.0358 99.6185 16.2148 98.7305 16.2148C97.069 16.2148 95.7585 15.6885 94.7988 14.6357C93.8392 13.5758 93.3594 12.1149 93.3594 10.2529V10.0488C93.3594 8.25846 93.8356 6.82975 94.7881 5.7627C95.7406 4.69564 97.0475 4.16211 98.709 4.16211C100.163 4.16211 101.326 4.57747 102.2 5.4082C103.081 6.23177 103.529 7.33105 103.543 8.70605H100.632C100.618 8.10449 100.431 7.61751 100.073 7.24512C99.7152 6.86556 99.2425 6.67578 98.6553 6.67578C97.932 6.67578 97.3841 6.94076 97.0117 7.4707C96.6465 7.99349 96.4639 8.8457 96.4639 10.0273V10.3496C96.4639 11.5456 96.6465 12.4049 97.0117 12.9277C97.377 13.4505 97.932 13.7119 98.6768 13.7119ZM109.655 11.6064L111.804 4.37695H115.134L110.461 17.8047L110.203 18.417C109.508 19.9352 108.363 20.6943 106.766 20.6943C106.314 20.6943 105.856 20.6263 105.391 20.4902V18.1377L105.863 18.1484C106.451 18.1484 106.887 18.0589 107.174 17.8799C107.467 17.7008 107.697 17.4036 107.861 16.9883L108.227 16.0322L104.155 4.37695H107.496L109.655 11.6064Z" fill="black"/>
</svg>
