<svg width="32" height="32" viewBox="0 0 32 32" fill="none" xmlns="http://www.w3.org/2000/svg">
<path d="M16.0001 2.66663C19.6227 2.66663 20.0747 2.67996 21.4961 2.74663C22.9161 2.81329 23.8827 3.03596 24.7334 3.36663C25.6134 3.70529 26.3547 4.16396 27.0961 4.90396C27.7741 5.57049 28.2987 6.37674 28.6334 7.26663C28.9627 8.11596 29.1868 9.08396 29.2534 10.504C29.3161 11.9253 29.3334 12.3773 29.3334 16C29.3334 19.6226 29.3201 20.0746 29.2534 21.496C29.1868 22.916 28.9627 23.8826 28.6334 24.7333C28.2997 25.6237 27.7749 26.4301 27.0961 27.096C26.4294 27.7737 25.6232 28.2983 24.7334 28.6333C23.8841 28.9626 22.9161 29.1866 21.4961 29.2533C20.0747 29.316 19.6227 29.3333 16.0001 29.3333C12.3774 29.3333 11.9254 29.32 10.5041 29.2533C9.08408 29.1866 8.11741 28.9626 7.26675 28.6333C6.37652 28.2993 5.57012 27.7746 4.90408 27.096C4.22596 26.4295 3.70132 25.6233 3.36675 24.7333C3.03608 23.884 2.81341 22.916 2.74675 21.496C2.68408 20.0746 2.66675 19.6226 2.66675 16C2.66675 12.3773 2.68008 11.9253 2.74675 10.504C2.81341 9.08263 3.03608 8.11729 3.36675 7.26663C3.7004 6.3762 4.22515 5.56972 4.90408 4.90396C5.57031 4.2256 6.37665 3.70093 7.26675 3.36663C8.11741 3.03596 9.08275 2.81329 10.5041 2.74663C11.9254 2.68396 12.3774 2.66663 16.0001 2.66663ZM16.0001 9.33329C14.232 9.33329 12.5363 10.0357 11.286 11.2859C10.0358 12.5362 9.33342 14.2318 9.33342 16C9.33342 17.7681 10.0358 19.4638 11.286 20.714C12.5363 21.9642 14.232 22.6666 16.0001 22.6666C17.7682 22.6666 19.4639 21.9642 20.7141 20.714C21.9644 19.4638 22.6667 17.7681 22.6667 16C22.6667 14.2318 21.9644 12.5362 20.7141 11.2859C19.4639 10.0357 17.7682 9.33329 16.0001 9.33329ZM24.6667 8.99996C24.6667 8.55793 24.4912 8.13401 24.1786 7.82145C23.866 7.50889 23.4421 7.33329 23.0001 7.33329C22.5581 7.33329 22.1341 7.50889 21.8216 7.82145C21.509 8.13401 21.3334 8.55793 21.3334 8.99996C21.3334 9.44199 21.509 9.86591 21.8216 10.1785C22.1341 10.491 22.5581 10.6666 23.0001 10.6666C23.4421 10.6666 23.866 10.491 24.1786 10.1785C24.4912 9.86591 24.6667 9.44199 24.6667 8.99996ZM16.0001 12C17.0609 12 18.0784 12.4214 18.8285 13.1715C19.5787 13.9217 20.0001 14.9391 20.0001 16C20.0001 17.0608 19.5787 18.0782 18.8285 18.8284C18.0784 19.5785 17.0609 20 16.0001 20C14.9392 20 13.9218 19.5785 13.1717 18.8284C12.4215 18.0782 12.0001 17.0608 12.0001 16C12.0001 14.9391 12.4215 13.9217 13.1717 13.1715C13.9218 12.4214 14.9392 12 16.0001 12Z" fill="#6854FC"/>
</svg>
