<svg width="32" height="32" viewBox="0 0 32 32" fill="none" xmlns="http://www.w3.org/2000/svg">
<path d="M28.7241 8.66404C29.3334 11.04 29.3334 16 29.3334 16C29.3334 16 29.3334 20.96 28.7241 23.336C28.3854 24.6494 27.3947 25.6827 26.1401 26.032C23.8614 26.6667 16.0001 26.6667 16.0001 26.6667C16.0001 26.6667 8.14275 26.6667 5.86008 26.032C4.60008 25.6774 3.61075 24.6454 3.27608 23.336C2.66675 20.96 2.66675 16 2.66675 16C2.66675 16 2.66675 11.04 3.27608 8.66404C3.61475 7.35071 4.60541 6.31737 5.86008 5.96804C8.14275 5.33337 16.0001 5.33337 16.0001 5.33337C16.0001 5.33337 23.8614 5.33337 26.1401 5.96804C27.4001 6.32271 28.3894 7.35471 28.7241 8.66404ZM13.3334 20.6667L21.3334 16L13.3334 11.3334V20.6667Z" fill="#6854FC"/>
</svg>
